M48
; DRILL file {KiCad 7.0.8} date Tue Feb 11 21:18:29 2025
; FORMAT={-:-/ absolute / inch / decimal}
; #@! TF.CreationDate,2025-02-11T21:18:29-08:00
; #@! TF.GenerationSoftware,Kicad,Pcbnew,7.0.8
; #@! TF.FileFunction,Plated,1,2,PTH
FMAT,2
INCH
; #@! TA.AperFunction,Plated,PTH,ComponentDrill
T1C0.0315
; #@! TA.AperFunction,Plated,PTH,ComponentDrill
T2C0.0394
%
G90
G05
T1
X5.2498Y-4.4306
X5.2498Y-4.77
X5.3498Y-4.4306
X5.3498Y-4.77
X5.4498Y-4.4306
X5.4498Y-4.77
X5.5498Y-4.4306
X5.5498Y-4.77
X5.6498Y-4.4306
X5.6498Y-4.77
X5.7498Y-4.4306
X5.7498Y-4.77
X5.8498Y-4.4306
X5.8498Y-4.77
T2
X4.7Y-4.9
X4.8Y-4.9
X4.9Y-4.9
X5.0Y-4.9
X5.1Y-4.9
X5.2Y-4.9
X5.3Y-4.9
X5.4Y-4.9
X5.5Y-4.9
X5.6Y-4.9
X5.7Y-4.9
X5.8Y-4.9
X5.9Y-4.9
X6.0Y-4.9
X6.1Y-4.9
X6.2Y-4.9
X6.3Y-4.9
X6.4Y-4.9
T0
M30
